<?xml version="1.0" standalone="no"?>
<!DOCTYPE svg PUBLIC "-//W3C//DTD SVG 20010904//EN"
 "http://www.w3.org/TR/2001/REC-SVG-20010904/DTD/svg10.dtd">
<svg version="1.0" xmlns="http://www.w3.org/2000/svg"
 width="300.000000pt" height="300.000000pt" viewBox="0 0 300.000000 300.000000"
 preserveAspectRatio="xMidYMid meet">

<g transform="translate(0.000000,300.000000) scale(0.100000,-0.100000)"
fill="#000000" stroke="none">
<path d="M0 2256 l0 -744 53 -21 c140 -56 275 -81 444 -81 252 0 464 65 679
210 41 28 76 50 78 50 2 0 66 -66 142 -147 173 -186 374 -401 443 -475 l53
-57 -678 -3 -679 -3 -48 -28 c-26 -16 -60 -47 -75 -70 -26 -41 -27 -45 -27
-197 0 -152 1 -156 27 -197 15 -23 49 -54 75 -70 l48 -28 965 0 965 0 46 27
c25 15 59 46 75 70 29 43 29 43 29 198 0 152 -1 156 -27 197 -34 52 -100 92
-167 100 -49 6 -53 8 -163 126 -62 66 -114 123 -116 127 -1 3 16 12 38 19 25
7 38 16 34 23 -4 7 -3 8 4 4 14 -8 76 36 121 87 28 31 32 40 21 50 -10 10 -11
9 -6 -3 4 -8 -1 -4 -12 9 -11 13 -24 21 -31 17 -6 -4 -11 -3 -11 3 0 10 38 27
53 23 4 -1 7 3 7 10 0 6 2 9 5 6 9 -8 -6 -38 -16 -32 -5 3 -9 1 -9 -4 0 -5 9
-12 20 -15 25 -7 35 11 55 97 14 58 14 74 1 136 -9 44 -29 94 -51 130 -35 57
-54 78 -41 44 4 -9 2 -13 -5 -8 -8 4 -9 -1 -4 -17 7 -20 5 -22 -6 -12 -11 9
-14 6 -15 -15 -1 -15 -5 -37 -9 -48 -9 -29 27 -39 49 -13 11 13 12 19 3 19 -9
0 -8 3 2 9 10 7 11 13 2 30 -7 12 -8 21 -2 21 5 0 13 -15 16 -32 4 -18 14 -41
22 -50 13 -15 13 -16 -4 -12 -10 2 -24 0 -31 -4 -19 -13 -3 -42 24 -42 13 0
24 -5 24 -11 0 -5 4 -8 8 -5 11 7 12 -65 1 -86 -5 -10 -19 -18 -29 -18 -11 0
-20 -4 -20 -9 0 -6 12 -6 30 -1 27 8 28 7 18 -10 -6 -10 -26 -25 -43 -33 -32
-15 -32 -15 -28 11 4 21 2 24 -6 12 -7 -10 -11 -11 -11 -2 0 6 -9 12 -20 12
-16 0 -20 -7 -20 -31 0 -17 7 -37 15 -45 8 -9 15 -24 15 -35 0 -10 7 -19 15
-19 18 0 20 -16 3 -26 -6 -4 -17 1 -24 11 -17 23 -29 14 -16 -12 13 -25 4 -43
-19 -43 -13 0 -18 -4 -13 -12 5 -8 0 -9 -17 -3 -51 16 -97 17 -126 2 -18 -10
-34 -12 -43 -7 -9 6 -17 4 -22 -3 -5 -8 -11 -8 -15 -2 -9 12 -26 17 -74 23
-27 3 -36 0 -36 -12 0 -8 4 -13 8 -11 13 9 70 -8 66 -19 -5 -13 -77 -17 -77
-3 0 5 -7 6 -16 3 -8 -3 -12 -2 -9 4 3 6 -4 10 -16 10 -22 0 -22 0 -3 16 10 8
13 13 7 9 -7 -3 -13 -1 -13 5 0 6 -5 8 -10 5 -5 -3 -10 -1 -10 4 0 6 4 11 8
11 5 0 9 7 9 15 0 8 -4 15 -9 15 -5 0 -7 4 -3 9 3 5 0 13 -6 17 -8 5 -11 1 -7
-12 3 -11 -2 -26 -10 -34 -14 -13 -15 -12 -9 3 5 14 2 16 -17 13 -19 -3 -23
-1 -19 15 4 13 0 19 -10 19 -17 0 -31 30 -32 68 -1 30 17 23 22 -9 4 -26 39
-67 48 -57 3 3 3 18 -1 33 -5 20 -9 23 -15 13 -5 -7 -9 -8 -9 -3 0 6 5 16 12
23 9 9 9 15 0 24 -7 7 -12 28 -12 48 0 44 -10 80 -21 80 -5 0 -10 -10 -10 -22
-1 -15 -4 -11 -9 12 l-7 35 -2 -34 c-2 -50 -14 -29 -17 29 -2 47 10 67 22 36
3 -8 13 -16 23 -19 14 -3 16 1 13 27 -3 24 -1 28 7 16 8 -11 11 -12 11 -2 0 7
5 10 10 7 14 -8 13 18 -1 32 -8 8 -8 13 0 17 6 4 11 16 11 27 0 10 3 18 8 17
4 -1 17 3 28 10 12 6 24 9 27 6 3 -3 12 3 19 15 7 12 18 21 24 21 7 0 14 16
16 35 3 29 1 35 -11 30 -10 -3 -9 1 4 10 16 13 33 14 75 6 3 -1 -2 -5 -10 -11
-9 -5 -19 -5 -25 0 -8 7 -12 5 -12 -5 0 -11 13 -15 49 -15 33 0 47 4 42 11 -4
8 3 9 26 4 26 -6 31 -4 25 6 -6 11 -5 12 6 2 15 -15 33 -17 25 -4 -3 5 4 11
16 14 13 4 17 2 11 -4 -5 -5 -7 -28 -4 -52 8 -56 34 -58 42 -2 3 22 7 31 8 20
1 -14 9 -20 27 -22 14 0 31 -6 38 -13 8 -8 6 -9 -8 -4 -13 5 -17 4 -12 -4 10
-16 -16 -16 -32 0 -7 7 -12 8 -12 2 0 -5 6 -16 12 -22 10 -10 10 -15 -1 -21
-20 -13 -4 -31 29 -31 15 0 31 -6 33 -12 6 -13 9 8 10 50 0 15 4 21 13 18 9
-3 14 2 14 13 0 21 -95 86 -111 75 -7 -4 -9 -3 -5 4 9 16 -125 44 -174 36 -22
-4 -40 -10 -40 -15 0 -5 -6 -6 -14 -3 -19 7 -77 -18 -133 -58 -48 -35 -126
-144 -115 -162 3 -6 9 0 12 13 l5 23 25 -21 c16 -14 20 -21 10 -20 -31 3 -41
-1 -34 -13 5 -10 4 -10 -6 -1 -7 6 -18 9 -25 7 -7 -3 -57 43 -113 102 l-100
108 49 90 c58 109 92 199 121 315 18 71 22 116 22 261 0 174 -4 211 -46 358
l-12 42 -813 0 -813 0 0 -744z m2075 -297 c17 -8 16 -9 -7 -6 -15 2 -29 0 -31
-6 -2 -6 -13 -6 -27 -1 l-25 8 30 7 c40 9 37 9 60 -2z m52 -5 c-3 -3 -12 -4
-19 -1 -8 3 -5 6 6 6 11 1 17 -2 13 -5z m-274 -77 c7 3 9 2 5 -2 -5 -5 -20
-10 -34 -11 -25 -3 -25 -2 -8 11 11 7 21 9 22 4 2 -5 9 -6 15 -2z m-56 -79 c5
-33 5 -33 -15 -13 -17 18 -17 21 -3 27 10 4 11 7 3 7 -7 1 -10 6 -7 12 10 15
16 6 22 -33z m470 36 c-3 -3 -12 -4 -19 -1 -8 3 -5 6 6 6 11 1 17 -2 13 -5z
m-530 -316 c-3 -7 -5 -2 -5 12 0 14 2 19 5 13 2 -7 2 -19 0 -25z m568 -157 c3
-5 2 -12 -3 -15 -5 -3 -9 1 -9 9 0 17 3 19 12 6z m-105 -51 c13 -8 11 -11 -7
-16 -13 -4 -23 -10 -23 -15 0 -5 -14 -9 -31 -9 -22 0 -30 -4 -26 -14 4 -11 1
-11 -19 -2 -22 10 -22 12 -7 24 9 6 29 12 44 12 41 0 64 11 47 21 -7 5 -8 9
-3 9 6 0 17 -5 25 -10z m-150 -50 c0 -5 -12 -10 -27 -9 l-28 1 25 8 c14 4 26
8 28 9 1 1 2 -3 2 -9z"/>
<path d="M2955 2948 c-22 -23 -119 -128 -215 -233 -96 -104 -198 -215 -226
-245 -28 -30 -97 -104 -153 -165 l-101 -110 367 -3 c201 -1 368 -1 370 1 2 2
2 183 1 401 l-3 398 -40 -44z"/>
<path d="M1893 1815 c-3 -9 -3 -18 0 -22 10 -10 37 6 37 22 0 20 -29 20 -37 0z"/>
<path d="M2290 1550 c-13 -8 -12 -10 3 -10 9 0 17 5 17 10 0 12 -1 12 -20 0z"/>
<path d="M1826 1441 c-7 -11 35 -47 66 -57 13 -4 24 -1 29 7 14 21 6 53 -13
57 -12 2 -15 -2 -11 -16 2 -11 0 -23 -6 -26 -7 -5 -10 1 -8 16 1 18 -3 24 -25
26 -14 2 -29 -1 -32 -7z"/>
</g>
</svg>
